<svg width="13" height="13" viewBox="0 0 13 13" fill="none" xmlns="http://www.w3.org/2000/svg">
<path fill-rule="evenodd" clip-rule="evenodd" d="M6.5 12.2353C3.33717 12.2353 0.764705 9.66283 0.764705 6.5C0.764705 3.33717 3.33717 0.764705 6.5 0.764705C9.66283 0.764705 12.2353 3.33717 12.2353 6.5C12.2353 9.66283 9.66283 12.2353 6.5 12.2353ZM6.5 0C2.91583 0 0 2.91583 0 6.5C0 10.0842 2.91583 13 6.5 13C10.0842 13 13 10.0842 13 6.5C13 2.91583 10.0842 0 6.5 0ZM5.78462 7.84046L3.9478 6.00363L3.40714 6.54428L5.78462 8.92174L9.8475 4.85887L9.30685 4.31821L5.78462 7.84046Z" fill="#9D9D9D"/>
</svg>
