<svg width="28" height="30" viewBox="0 0 28 30" fill="none" xmlns="http://www.w3.org/2000/svg">
<g filter="url(#filter0_d_7_20)">
<mask id="mask0_7_20" style="mask-type:alpha" maskUnits="userSpaceOnUse" x="6" y="3" width="17" height="18">
<path d="M6 11C6 7.22876 6 5.34315 7.10648 4.17157C8.21297 3 9.99383 3 13.5556 3H15.4444C19.0061 3 20.7871 3 21.8935 4.17157C23 5.34315 23 7.22876 23 11V13C23 16.7712 23 18.6569 21.8935 19.8284C20.7871 21 19.0061 21 15.4444 21H13.5556C9.99383 21 8.21297 21 7.10648 19.8284C6 18.6569 6 16.7712 6 13V11Z" fill="#273B4A"/>
</mask>
<g mask="url(#mask0_7_20)">
<path d="M8.27604 12.5901L8.13177 12.7429C7.20558 13.7235 6.74249 14.2139 6.4653 14.8158C6.36899 15.025 6.29009 15.2427 6.22952 15.4664C6.05522 16.1102 6.08964 16.8027 6.15848 18.1877L6.47225 24.5H23V19.7573C23 18.3059 23 17.5802 22.7747 16.9207C22.7131 16.7404 22.6393 16.565 22.554 16.3959C22.2417 15.7774 21.7323 15.2919 20.7134 14.321L20.5108 14.1279C19.6644 13.3214 19.2413 12.9182 18.7574 12.8039C18.4539 12.7322 18.1383 12.741 17.8388 12.8295C17.3612 12.9705 16.9587 13.3967 16.1536 14.2492C15.5563 14.8816 15.2578 15.1977 14.9368 15.2406C14.7379 15.2672 14.5362 15.226 14.3608 15.1231C14.078 14.9572 13.909 14.5399 13.5713 13.7053C12.8528 11.9304 12.4936 11.0429 11.8761 10.7151C11.5652 10.5501 11.2173 10.4792 10.8707 10.5101C10.1824 10.5716 9.54693 11.2445 8.27604 12.5901Z" fill="#2A4157" fill-opacity="0.24" stroke="#004352" stroke-width="2.50784"/>
</g>
<path d="M5 11C5 7.22876 5 5.34315 6.17157 4.17157C7.34315 3 9.22876 3 13 3H15C18.7712 3 20.6569 3 21.8284 4.17157C23 5.34315 23 7.22876 23 11V13C23 16.7712 23 18.6569 21.8284 19.8284C20.6569 21 18.7712 21 15 21H13C9.22876 21 7.34315 21 6.17157 19.8284C5 18.6569 5 16.7712 5 13V11Z" stroke="white"/>
<path d="M18.5 9C19.3284 9 20 8.32843 20 7.5C20 6.67157 19.3284 6 18.5 6C17.6716 6 17 6.67157 17 7.5C17 8.32843 17.6716 9 18.5 9Z" fill="white"/>
</g>
<defs>
<filter id="filter0_d_7_20" x="-2" y="0" width="32" height="32" filterUnits="userSpaceOnUse" color-interpolation-filters="sRGB">
<feFlood flood-opacity="0" result="BackgroundImageFix"/>
<feColorMatrix in="SourceAlpha" type="matrix" values="0 0 0 0 0 0 0 0 0 0 0 0 0 0 0 0 0 0 127 0" result="hardAlpha"/>
<feOffset dy="4"/>
<feGaussianBlur stdDeviation="2"/>
<feComposite in2="hardAlpha" operator="out"/>
<feColorMatrix type="matrix" values="0 0 0 0 0 0 0 0 0 0 0 0 0 0 0 0 0 0 0.25 0"/>
<feBlend mode="normal" in2="BackgroundImageFix" result="effect1_dropShadow_7_20"/>
<feBlend mode="normal" in="SourceGraphic" in2="effect1_dropShadow_7_20" result="shape"/>
</filter>
</defs>
</svg>
